<?xml version="1.0" encoding="UTF-8" standalone="no"?><!DOCTYPE svg PUBLIC "-//W3C//DTD SVG 1.1//EN" "http://www.w3.org/Graphics/SVG/1.1/DTD/svg11.dtd"><svg width="100%" height="100%" viewBox="0 0 4267 4267" version="1.1" xmlns="http://www.w3.org/2000/svg" xmlns:xlink="http://www.w3.org/1999/xlink" xml:space="preserve" xmlns:serif="http://www.serif.com/" style="fill-rule:evenodd;clip-rule:evenodd;stroke-linejoin:round;stroke-miterlimit:2;"><rect id="Artboard1" x="0" y="0" width="4266.667" height="4266.667" style="fill:none;"/><clipPath id="_clip1"><rect x="0" y="0" width="4266.667" height="4266.667"/></clipPath><g clip-path="url(#_clip1)"><path d="M4266.667,1116.667l0,2033.333c0,616.305 -500.362,1116.667 -1116.667,1116.667l-2033.333,0c-616.305,0 -1116.667,-500.362 -1116.667,-1116.667l-0,-2033.333c0,-616.305 500.362,-1116.667 1116.667,-1116.667l2033.333,0c616.305,0 1116.667,500.362 1116.667,1116.667Z" style="fill:#0865fe;"/><path id="Bubble" d="M1082.302,3272.158c-306.749,-283.273 -498.969,-688.778 -498.969,-1138.824c0,-855.468 694.532,-1550 1550,-1550c855.468,0 1550,694.532 1550,1550c0,855.468 -694.532,1550 -1550,1550c-169.249,0 -332.198,-27.185 -484.716,-77.424c-16.109,0.396 -32.091,3.97 -46.934,10.794l-307.675,139.273c-15.767,7.142 -32.812,10.831 -50.045,10.831c-66.594,0 -121.907,-55.09 -123.942,-123.444l-8.525,-283.321c-0.688,-31.072 -9.597,-64.6 -29.193,-87.885Zm1044.614,-2392.776c-695.667,-0 -1243.903,566.528 -1247.514,1244.14c-1.794,334.949 112.468,643.162 325.858,868.954c92.358,0.754 242.291,-1.933 355.231,-1.994c17.773,0.116 34.857,-6.87 47.457,-19.406c12.6,-12.536 19.671,-29.585 19.645,-47.359c-0.596,-226.517 -3.85,-512.61 -4.343,-783.961c-0.022,-17.707 7.001,-34.696 19.52,-47.218c12.519,-12.523 29.506,-19.55 47.213,-19.533c294.529,0.764 868.757,5.872 1174.159,8.143c23.566,0.171 45.291,12.771 57.141,33.142c86.804,148.621 189.423,313.562 280.67,461.621c13.165,21.659 37.552,33.888 62.784,31.483c25.232,-2.405 46.87,-19.021 55.706,-42.778c46.803,-131.644 66.842,-271.075 66.842,-424.866c0,-695.667 -564.701,-1260.368 -1260.368,-1260.368Z" style="fill:#fff;"/></g></svg>